:SAMPLES-PER-SECOND 30
:FRAME-RANGE 1-3535
:FULLY-SPECIFIED
:DEGREES
1989
root  -32.1008 47.1644 24.9494 11.6503 -0.197937 -2.22408
RightUpLeg  -27.757 -5.12023 -4.14409
RightLeg  93.7638 0.796995 -4.87862
RightFoot  -18.3902 0.336465 7.48063
RightToes  5.38503e-012 1.26228e-014 -6.01869e-014
Spine  8.59201 6.01198 8.87717
Spine1  6.16639 8.81828 -10.6315
HEad  -3.80426 9.60623 -9.25086
LeftShoulder1  1.04982 -2.34633 -11.6673
LeftArm  -8.00059 1.97559 -6.77764
LeftForeArm  -13.0602 7.04288 -8.67426
LeftHand  -0.0881759 3.2523 3.99527
RightShoulder  0.113946 6.71863 -8.30311
RightArm  -60.5864 41.8925 -13.6014
RightForeArm  29.3818 -4.16569 -9.20638
RightHand  -0.0802194 -4.81801 -13.2222
LeftUpLeg  -29.0344 4.61337 -4.37276
LeftLeg  20.2087 9.93032 3.63818
LeftFoot  6.59687 1.6246 -10.5261
LeftToes  8.9788e-011 3.29689e-010 2.1201e-011
1990
root  -33.8733 45.7229 27.2164 11.3804 -1.51971 -4.48927
RightUpLeg  -32.5003 -2.48829 -5.09637
RightLeg  97.2471 0.329236 -0.0810751
RightFoot  -21.0275 0.438028 6.84717
RightToes  5.38503e-012 1.26228e-014 -6.01869e-014
Spine  10.7403 6.26775 10.6737
Spine1  6.38574 9.60696 -10.7409
HEad  -4.21726 10.2759 -9.21692
LeftShoulder1  1.07999 -1.97515 -13.7392
LeftArm  -5.53964 6.92099 -12.5905
LeftForeArm  -5.78999 5.69869 -9.57931
LeftHand  -0.106068 3.52233 5.68528
RightShoulder  0.529641 7.50521 -3.9619
RightArm  -56.4164 46.221 -5.64263
RightForeArm  35.2421 -4.45754 -7.11746
RightHand  -0.0675142 -4.94952 -13.8541
LeftUpLeg  -29.4323 3.44493 -1.52221
LeftLeg  15.8878 5.39004 0.378151
LeftFoot  6.92181 2.81846 -17.678
LeftToes  8.9788e-011 3.29689e-010 2.1201e-011
1991
root  -35.6493 43.9518 29.6513 10.7358 -2.55496 -7.30645
RightUpLeg  -36.517 -1.61608 -5.44002
RightLeg  96.1902 0.136899 1.2225
RightFoot  -21.9223 0.520602 7.22128
RightToes  5.38503e-012 1.26228e-014 -6.01869e-014
Spine  12.5577 5.88612 12.1369
Spine1  6.72384 9.63641 -10.1654
HEad  -5.37995 11.9546 -9.7099
LeftShoulder1  1.00412 -1.04829 -16.5935
LeftArm  -0.879809 10.9011 -16.0224
LeftForeArm  2.29169 2.09029 -11.604
LeftHand  -0.148829 3.14658 7.08971
RightShoulder  0.828376 7.99537 -1.16716
RightArm  -48.3967 50.0929 8.47787
RightForeArm  43.2745 -4.73969 -4.64564
RightHand  -0.0902139 -4.82668 -15.9337
LeftUpLeg  -29.1001 2.78391 1.56078
LeftLeg  15.0908 -1.76008 -0.797692
LeftFoot  5.12441 2.91432 -20.176
LeftToes  8.9788e-011 3.29689e-010 2.1201e-011
1992
root  -37.4545 41.7328 32.2017 9.4823 -4.13651 -10.5484
RightUpLeg  -40.0129 -1.20676 -4.76375
RightLeg  90.4569 0.355094 -1.38107
RightFoot  -24.6459 0.595119 6.53209
RightToes  5.38503e-012 1.26228e-014 -6.01869e-014
Spine  14.9248 5.41446 14.1348
Spine1  7.02432 9.83525 -9.75355
HEad  -7.64914 14.5041 -10.4307
LeftShoulder1  0.984952 -0.834668 -17.3827
LeftArm  2.76177 14.3804 -20.3928
LeftForeArm  13.7614 -1.65457 -13.017
LeftHand  -0.120731 3.87468 8.15948
RightShoulder  1.25514 8.46617 2.64228
RightArm  -38.3454 52.8946 22.9448
RightForeArm  53.4565 -4.99233 -1.68107
RightHand  -0.213173 -4.05496 -17.6624
LeftUpLeg  -27.5969 4.28258 5.18118
LeftLeg  19.7624 -4.24266 -1.32841
LeftFoot  7.96617 3.40224 -20.1083
LeftToes  8.9788e-011 3.29689e-010 2.1201e-011
1993
root  -39.2702 39.1922 34.8112 8.19775 -6.47 -12.7975
RightUpLeg  -43.9793 -2.4788 -3.9926
RightLeg  80.1889 -0.448257 -5.23619
RightFoot  -23.9173 0.350771 4.65399
RightToes  5.38503e-012 1.26228e-014 -6.01869e-014
Spine  16.7711 4.50856 13.773
Spine1  7.33668 9.28057 -9.2408
HEad  -10.2579 18.4618 -11.7624
LeftShoulder1  1.24417 -2.00844 -16.9791
LeftArm  14.6844 20.9814 -25.2156
LeftForeArm  11.1187 -8.80143 -12.9486
LeftHand  -0.113877 4.13967 9.23122
RightShoulder  1.67103 9.10462 5.82721
RightArm  -21.7633 54.5477 40.9726
RightForeArm  61.7529 -5.63022 3.64077
RightHand  -0.16808 -4.50246 -20.8197
LeftUpLeg  -24.8773 4.51767 7.79578
LeftLeg  30.4325 -6.67679 -3.86118
LeftFoot  -5.37823 -0.183357 4.14143
LeftToes  8.9788e-011 3.29689e-010 2.1201e-011
1994
root  -41.0575 37.1761 37.2748 6.948 -7.07098 -10.8441
RightUpLeg  -45.9261 -8.35212 -4.83541
RightLeg  62.2031 -2.31909 -5.30331
RightFoot  -19.2104 0.26956 5.80953
RightToes  5.38503e-012 1.26228e-014 -6.01869e-014
Spine  17.9365 3.2153 8.11242
Spine1  7.06033 7.69228 -9.24284
HEad  -14.4891 21.4924 -14.8196
LeftShoulder1  1.24884 -1.8215 -18.0032
LeftArm  23.2694 21.5152 -30.7563
LeftForeArm  11.0733 -11.8808 -12.2276
LeftHand  -0.163255 3.59631 9.80201
RightShoulder  1.97453 8.58987 9.34935
RightArm  -6.17708 51.6209 59.4675
RightForeArm  70.8415 -0.802713 8.41456
RightHand  -0.116259 -4.81089 -21.5891
LeftUpLeg  -24.1954 -0.833254 7.72668
LeftLeg  42.4481 0.71422 1.1399
LeftFoot  -22.4058 0.509479 3.86788
LeftToes  8.9788e-011 3.29689e-010 2.1201e-011
